<svg xmlns="http://www.w3.org/2000/svg" viewBox="0 0 576 512"><path d="m402.3 344.9 32-32a8 8 0 0 1 13.7 5.7V464a48 48 0 0 1-48 48H48a48 48 0 0 1-48-48V112a48 48 0 0 1 48-48h273.5a8 8 0 0 1 5.7 13.7l-32 32a8 8 0 0 1-5.7 2.3H48v352h352V350.5c0-2.1.8-4.1 2.3-5.6m156.6-201.8L296.3 405.7l-90.4 10a41.3 41.3 0 0 1-45.6-45.6l10-90.4L432.9 17.1a58.4 58.4 0 0 1 82.7 0l43.2 43.2a58.6 58.6 0 0 1 .1 82.8M460.1 174 402 115.9 216.2 301.8l-7.3 65.3 65.3-7.3zm64.8-79.7-43.2-43.2a10.4 10.4 0 0 0-14.8 0L436 82l58.1 58.1 30.9-30.9c4-4.2 4-10.8-.1-14.9"/></svg>